<?xml version="1.0" encoding="utf-8"?>
<!-- Generator: Adobe Illustrator 16.0.0, SVG Export Plug-In . SVG Version: 6.00 Build 0)  -->
<!DOCTYPE svg PUBLIC "-//W3C//DTD SVG 1.1//EN" "http://www.w3.org/Graphics/SVG/1.1/DTD/svg11.dtd">
<svg version="1.1" id="Слой_1" xmlns="http://www.w3.org/2000/svg" xmlns:xlink="http://www.w3.org/1999/xlink" x="0px" y="0px"
	 width="841.89px" height="595.28px" viewBox="0 0 841.89 595.28" enable-background="new 0 0 841.89 595.28" xml:space="preserve">
<g>
	<g>
		<path fill="none" stroke="#6B3B66" stroke-width="10" stroke-miterlimit="10" d="M420,282.406c0-11-9-20-20-20h-25.333
			c-11,0-20,9-20,20v49.814c0,11,9,20,20,20H400c11,0,20-9,20-20V282.406z"/>
	</g>
	<path fill="#6B3B66" d="M401.18,316.079c0,1.104-1.309,2-2.923,2l0,0c-1.614,0-2.923-0.896-2.923-2v-52.003
		c0-1.104,1.309-2,2.923-2l0,0c1.614,0,2.923,0.896,2.923,2V316.079z"/>
	<path fill="#6B3B66" d="M389.68,316.079c0,1.104-1.309,2-2.923,2l0,0c-1.614,0-2.923-0.896-2.923-2v-52.003
		c0-1.104,1.309-2,2.923-2l0,0c1.614,0,2.923,0.896,2.923,2V316.079z"/>
	<path fill="#6B3B66" d="M378.805,316.079c0,1.104-1.309,2-2.923,2l0,0c-1.614,0-2.923-0.896-2.923-2v-52.003
		c0-1.104,1.309-2,2.923-2l0,0c1.614,0,2.923,0.896,2.923,2V316.079z"/>
	<g>
		<path fill="#FFFFFF" d="M441.723,367.352v-14.257c0-8.25-8.26-15.036-18.354-15.081l-72.185-0.299
			c-10.094-0.045-18.352,6.669-18.352,14.919v14.256"/>
		<path fill="none" stroke="#6B3B66" stroke-width="10" stroke-miterlimit="10" d="M441.723,367.352v-14.257
			c0-8.25-8.26-15.036-18.354-15.081l-72.185-0.299c-10.094-0.045-18.352,6.669-18.352,14.919v14.256"/>
	</g>
</g>
</svg>
