<?xml version="1.0" encoding="utf-8"?>
<!-- Generator: Adobe Illustrator 16.0.0, SVG Export Plug-In . SVG Version: 6.00 Build 0)  -->
<!DOCTYPE svg PUBLIC "-//W3C//DTD SVG 1.1//EN" "http://www.w3.org/Graphics/SVG/1.1/DTD/svg11.dtd">
<svg version="1.1" id="Слой_1" xmlns="http://www.w3.org/2000/svg" xmlns:xlink="http://www.w3.org/1999/xlink" x="0px" y="0px"
	 width="133px" height="131px" viewBox="0 0 133 131" enable-background="new 0 0 133 131" xml:space="preserve">
<path fill="none" stroke="#6B3B66" stroke-width="10" stroke-miterlimit="10" d="M124.096,50.476
	c0-16.729-13.563-30.292-30.294-30.292c-11.949,0-22.279,6.922-27.209,16.972c-4.93-10.05-15.26-16.972-27.211-16.972
	c-15.473,0-28.227,11.604-30.057,26.582l-0.008-0.007c-0.918,4.446-0.242,9.024,1.404,13.521c0.566,1.657,1.268,3.252,2.102,4.767
	c4.801,9.369,12.988,18.008,18.613,23.824c33.457,33.236,35.072,32.282,35.072,32.282L115,72.116c0,0,0.055-0.054,0.148-0.15
	c3.176-3.155,5.654-7.011,7.189-11.314c0.914-2.403,1.572-5.079,1.674-7.936c-0.002,0-0.006,0-0.008,0
	C124.059,51.975,124.096,51.23,124.096,50.476z"/>
</svg>
